<svg width="150" height="150" viewBox="0 0 150 150" fill="none" xmlns="http://www.w3.org/2000/svg">
<g id="solar:notification-lines-remove-bold" opacity="0.8">
<g id="Group">
<path id="Vector" fill-rule="evenodd" clip-rule="evenodd" d="M75 137.5C45.5375 137.5 30.8062 137.5 21.65 128.344C12.5 119.2 12.5 104.463 12.5 75C12.5 45.5375 12.5 30.8062 21.65 21.65C30.8125 12.5 45.5375 12.5 75 12.5H76.6125C74.0813 16.0437 73 20.0313 72.475 23.9438C71.875 28.4062 71.875 33.9125 71.875 40.05V41.2C71.875 47.3375 71.875 52.8437 72.475 57.3062C73.125 62.175 74.65 67.1688 78.7375 71.2625C82.8312 75.35 87.825 76.875 92.6937 77.525C97.1562 78.125 102.663 78.125 108.8 78.125H109.95C116.087 78.125 121.594 78.125 126.056 77.525C129.969 77 133.956 75.9187 137.5 73.3875V75C137.5 104.463 137.5 119.194 128.344 128.344C119.2 137.5 104.463 137.5 75 137.5ZM39.0625 87.5C39.0625 86.2568 39.5564 85.0645 40.4354 84.1854C41.3145 83.3064 42.5068 82.8125 43.75 82.8125H68.75C69.9932 82.8125 71.1855 83.3064 72.0646 84.1854C72.9436 85.0645 73.4375 86.2568 73.4375 87.5C73.4375 88.7432 72.9436 89.9355 72.0646 90.8146C71.1855 91.6936 69.9932 92.1875 68.75 92.1875H43.75C42.5068 92.1875 41.3145 91.6936 40.4354 90.8146C39.5564 89.9355 39.0625 88.7432 39.0625 87.5ZM39.0625 109.375C39.0625 108.132 39.5564 106.94 40.4354 106.06C41.3145 105.181 42.5068 104.688 43.75 104.688H81.25C82.4932 104.688 83.6855 105.181 84.5646 106.06C85.4436 106.94 85.9375 108.132 85.9375 109.375C85.9375 110.618 85.4436 111.81 84.5646 112.69C83.6855 113.569 82.4932 114.062 81.25 114.062H43.75C42.5068 114.062 41.3145 113.569 40.4354 112.69C39.5564 111.81 39.0625 110.618 39.0625 109.375Z" fill="url(#paint0_linear_411_1823)"/>
<path id="Vector_2" fill-rule="evenodd" clip-rule="evenodd" d="M109.375 68.75C96.1187 68.75 89.4875 68.75 85.3688 64.6312C81.25 60.5125 81.25 53.8812 81.25 40.625C81.25 27.3687 81.25 20.7375 85.3688 16.6187C89.4875 12.5 96.1187 12.5 109.375 12.5C122.631 12.5 129.262 12.5 133.381 16.6187C137.5 20.7375 137.5 27.3687 137.5 40.625C137.5 53.8812 137.5 60.5125 133.381 64.6312C129.262 68.75 122.631 68.75 109.375 68.75ZM93.5625 24.8125C94.4414 23.9347 95.6328 23.4416 96.875 23.4416C98.1172 23.4416 99.3086 23.9347 100.188 24.8125L109.375 34L118.562 24.8125C118.992 24.352 119.509 23.9826 120.084 23.7264C120.659 23.4702 121.28 23.3324 121.909 23.3213C122.539 23.3102 123.164 23.426 123.747 23.6617C124.331 23.8975 124.861 24.2484 125.306 24.6935C125.752 25.1386 126.103 25.6688 126.338 26.2525C126.574 26.8362 126.69 27.4614 126.679 28.0908C126.668 28.7202 126.53 29.3409 126.274 29.9159C126.017 30.4909 125.648 31.0084 125.188 31.4375L116 40.625L125.188 49.8125C126.016 50.7011 126.466 51.8764 126.445 53.0908C126.423 54.3051 125.931 55.4638 125.073 56.3226C124.214 57.1815 123.055 57.6734 121.841 57.6948C120.626 57.7163 119.451 57.2655 118.562 56.4375L109.375 47.25L100.188 56.4375C99.7584 56.898 99.2409 57.2674 98.6659 57.5236C98.0909 57.7798 97.4702 57.9176 96.8408 57.9287C96.2114 57.9398 95.5862 57.824 95.0025 57.5883C94.4188 57.3525 93.8886 57.0016 93.4435 56.5565C92.9984 56.1114 92.6475 55.5812 92.4117 54.9975C92.176 54.4138 92.0602 53.7886 92.0713 53.1592C92.0824 52.5298 92.2202 51.9091 92.4764 51.3341C92.7326 50.7591 93.102 50.2416 93.5625 49.8125L102.75 40.625L93.5625 31.4375C92.6847 30.5586 92.1916 29.3672 92.1916 28.125C92.1916 26.8828 92.6847 25.6914 93.5625 24.8125Z" fill="url(#paint1_linear_411_1823)"/>
</g>
</g>
<defs>
<linearGradient id="paint0_linear_411_1823" x1="16" y1="70.5" x2="174.5" y2="64" gradientUnits="userSpaceOnUse">
<stop stop-color="#D12E24"/>
<stop offset="1" stop-color="#6B1812"/>
</linearGradient>
<linearGradient id="paint1_linear_411_1823" x1="82.825" y1="38.6" x2="154.15" y2="35.675" gradientUnits="userSpaceOnUse">
<stop stop-color="#D12E24"/>
<stop offset="1" stop-color="#6B1812"/>
</linearGradient>
</defs>
</svg>
